<?xml version="1.0" standalone="no"?>
<!DOCTYPE svg PUBLIC "-//W3C//DTD SVG 20010904//EN"
 "http://www.w3.org/TR/2001/REC-SVG-20010904/DTD/svg10.dtd">
<svg version="1.0" xmlns="http://www.w3.org/2000/svg"
 width="72.000000pt" height="72.000000pt" viewBox="0 0 72.000000 72.000000"
 preserveAspectRatio="xMidYMid meet">
<metadata>
Created by potrace 1.14, written by Peter Selinger 2001-2017
</metadata>
<g transform="translate(0.000000,72.000000) scale(0.100000,-0.100000)"
fill="#000000" stroke="none">
<path d="M274 566 c-94 -44 -138 -108 -138 -202 -1 -86 37 -148 117 -188 159
-79 313 17 331 208 14 144 -166 249 -310 182z m162 -21 c49 -20 72 -41 96 -89
28 -55 27 -103 -5 -168 -31 -64 -76 -92 -165 -104 -125 -16 -225 107 -190 234
29 106 162 170 264 127z"/>
<path d="M305 519 c-16 -5 -47 -24 -67 -44 -84 -82 -60 -220 47 -260 87 -34
199 11 224 89 22 67 22 97 1 141 -32 65 -120 97 -205 74z m119 -34 c82 -39 95
-154 25 -221 -27 -25 -38 -29 -90 -29 -57 0 -63 2 -93 36 -45 48 -53 98 -27
152 11 23 33 50 48 59 35 22 95 23 137 3z"/>
<path d="M308 454 c-30 -16 -57 -70 -52 -101 7 -36 34 -73 61 -84 89 -34 163
22 153 115 -7 69 -95 106 -162 70z m121 -56 c19 -34 7 -75 -30 -97 -37 -23
-73 -17 -99 17 -27 34 -25 68 6 97 45 42 93 36 123 -17z"/>
<path d="M330 400 c-36 -36 -20 -80 30 -80 33 0 50 17 50 50 0 19 -8 30 -25
38 -33 15 -32 15 -55 -8z m50 -29 c0 -26 -17 -36 -35 -21 -18 15 -8 40 16 40
12 0 19 -7 19 -19z"/>
</g>
</svg>
